{
	"asset":{
		"generator":"Khronos glTF Blender I/O v5.2.40",
		"version":"2.0"
	},
	"scene":0,
	"scenes":[
		{
			"name":"Scene",
			"nodes":[
				0,
				1,
				2,
				3,
				4,
				5,
				6,
				7
			]
		}
	],
	"nodes":[
		{
			"mesh":0,
			"name":"Back",
			"rotation":[
				0.5,
				0.5,
				-0.5,
				0.5
			]
		},
		{
			"mesh":1,
			"name":"Compute Frame",
			"rotation":[
				0.5,
				0.5,
				-0.5,
				0.5
			]
		},
		{
			"mesh":2,
			"name":"Compute Frame Flipped",
			"rotation":[
				-0.5,
				-0.5,
				-0.5,
				0.5
			],
			"scale":[
				-1,
				-1,
				-1
			],
			"translation":[
				-0.6499999761581421,
				0,
				0
			]
		},
		{
			"mesh":3,
			"name":"Computer Frame Butt",
			"rotation":[
				0.5,
				0.5,
				-0.5,
				0.5
			],
			"translation":[
				-0.4000000059604645,
				0,
				0
			]
		},
		{
			"mesh":4,
			"name":"Computer Frame Side",
			"rotation":[
				0.5,
				0.5,
				-0.5,
				0.5
			],
			"translation":[
				-0.20000000298023224,
				0,
				0
			]
		},
		{
			"mesh":5,
			"name":"Computer Frame Side Flipped",
			"rotation":[
				-0.5,
				-0.5,
				-0.5,
				0.5
			],
			"scale":[
				-1,
				-1,
				-1
			],
			"translation":[
				-0.4500000476837158,
				0,
				0
			]
		},
		{
			"mesh":6,
			"name":"Screen",
			"rotation":[
				0.5,
				0.5,
				-0.5,
				0.5
			]
		},
		{
			"mesh":7,
			"name":"Stand",
			"rotation":[
				0.5,
				0.5,
				-0.5,
				0.5
			],
			"translation":[
				-0.20000000298023224,
				0,
				0
			]
		}
	],
	"materials":[
		{
			"alphaMode":"BLEND",
			"doubleSided":true,
			"name":"computer",
			"pbrMetallicRoughness":{
				"baseColorTexture":{
					"index":0
				},
				"metallicFactor":0,
				"roughnessFactor":0.5
			}
		},
		{
			"doubleSided":true,
			"name":"Material.009",
			"pbrMetallicRoughness":{
				"baseColorFactor":[
					0.800000011920929,
					0.800000011920929,
					0.800000011920929,
					1
				],
				"metallicFactor":0,
				"roughnessFactor":0.5
			}
		},
		{
			"doubleSided":true,
			"name":"Material.010",
			"pbrMetallicRoughness":{
				"baseColorFactor":[
					0.0295257568359375,
					0.02630615234375,
					0.024383544921875,
					1
				],
				"metallicFactor":0,
				"roughnessFactor":0.5
			}
		},
		{
			"doubleSided":true,
			"name":"Material.012",
			"pbrMetallicRoughness":{
				"baseColorFactor":[
					0.363525390625,
					0.33544921875,
					0.30419921875,
					1
				],
				"metallicFactor":0,
				"roughnessFactor":0.5
			}
		},
		{
			"doubleSided":true,
			"name":"Material.003",
			"pbrMetallicRoughness":{
				"metallicFactor":0,
				"roughnessFactor":0.5
			}
		},
		{
			"doubleSided":true,
			"name":"Material.011",
			"pbrMetallicRoughness":{
				"baseColorFactor":[
					0.1610107421875,
					0.12841796875,
					0.1077880859375,
					1
				],
				"metallicFactor":0,
				"roughnessFactor":0.5
			}
		},
		{
			"doubleSided":true,
			"name":"Material.002",
			"pbrMetallicRoughness":{
				"baseColorFactor":[
					0.1104736328125,
					0.11279296875,
					0.1241455078125,
					1
				],
				"metallicFactor":0,
				"roughnessFactor":0.5
			}
		},
		{
			"doubleSided":true,
			"name":"Material.008",
			"pbrMetallicRoughness":{
				"baseColorFactor":[
					0.800000011920929,
					0.800000011920929,
					0.800000011920929,
					1
				],
				"metallicFactor":0,
				"roughnessFactor":0.5
			}
		},
		{
			"doubleSided":true,
			"name":"Material.004",
			"pbrMetallicRoughness":{
				"baseColorFactor":[
					0.0305328369140625,
					0.0274505615234375,
					0.024993896484375,
					1
				],
				"metallicFactor":0,
				"roughnessFactor":0.5
			}
		},
		{
			"doubleSided":true,
			"name":"Material.005",
			"pbrMetallicRoughness":{
				"baseColorFactor":[
					0.1962890625,
					0.1563720703125,
					0.1337890625,
					1
				],
				"metallicFactor":0,
				"roughnessFactor":0.5
			}
		},
		{
			"doubleSided":true,
			"name":"Material.013",
			"pbrMetallicRoughness":{
				"baseColorFactor":[
					0.161865234375,
					0.1280517578125,
					0.10748291015625,
					1
				],
				"metallicFactor":0,
				"roughnessFactor":0.5
			}
		},
		{
			"doubleSided":true,
			"name":"Material.006",
			"pbrMetallicRoughness":{
				"baseColorFactor":[
					0.049774169921875,
					0.04248046875,
					0.036346435546875,
					1
				],
				"metallicFactor":0,
				"roughnessFactor":0.5
			}
		}
	],
	"meshes":[
		{
			"name":"computer.005",
			"primitives":[
				{
					"attributes":{
						"POSITION":0,
						"NORMAL":1,
						"TEXCOORD_0":2
					},
					"indices":3,
					"material":0
				},
				{
					"attributes":{
						"POSITION":4,
						"NORMAL":5,
						"TEXCOORD_0":6
					},
					"indices":7,
					"material":1
				},
				{
					"attributes":{
						"POSITION":8,
						"NORMAL":9,
						"TEXCOORD_0":10
					},
					"indices":11,
					"material":2
				},
				{
					"attributes":{
						"POSITION":12,
						"NORMAL":13,
						"TEXCOORD_0":14
					},
					"indices":15,
					"material":3
				},
				{
					"attributes":{
						"POSITION":16,
						"NORMAL":17,
						"TEXCOORD_0":18
					},
					"indices":19,
					"material":4
				}
			]
		},
		{
			"name":"computer.006",
			"primitives":[
				{
					"attributes":{
						"POSITION":20,
						"NORMAL":21,
						"TEXCOORD_0":22,
						"COLOR_0":23,
						"COLOR_1":24
					},
					"indices":25,
					"material":0
				},
				{
					"attributes":{
						"POSITION":26,
						"NORMAL":27,
						"TEXCOORD_0":28,
						"COLOR_0":29,
						"COLOR_1":30
					},
					"indices":31,
					"material":1
				},
				{
					"attributes":{
						"POSITION":32,
						"NORMAL":33,
						"TEXCOORD_0":34,
						"COLOR_0":35,
						"COLOR_1":36
					},
					"indices":37,
					"material":2
				},
				{
					"attributes":{
						"POSITION":38,
						"NORMAL":39,
						"TEXCOORD_0":40,
						"COLOR_0":41,
						"COLOR_1":42
					},
					"indices":43,
					"material":5
				},
				{
					"attributes":{
						"POSITION":44,
						"NORMAL":45,
						"TEXCOORD_0":46,
						"COLOR_0":47,
						"COLOR_1":48
					},
					"indices":49,
					"material":3
				},
				{
					"attributes":{
						"POSITION":50,
						"NORMAL":51,
						"TEXCOORD_0":52,
						"COLOR_0":53,
						"COLOR_1":54
					},
					"indices":55,
					"material":6
				},
				{
					"attributes":{
						"POSITION":56,
						"NORMAL":57,
						"TEXCOORD_0":58,
						"COLOR_0":59,
						"COLOR_1":60
					},
					"indices":61,
					"material":7
				}
			]
		},
		{
			"name":"computer.010",
			"primitives":[
				{
					"attributes":{
						"POSITION":62,
						"NORMAL":63,
						"TEXCOORD_0":64
					},
					"indices":65,
					"material":0
				},
				{
					"attributes":{
						"POSITION":66,
						"NORMAL":67,
						"TEXCOORD_0":68
					},
					"indices":69,
					"material":1
				},
				{
					"attributes":{
						"POSITION":70,
						"NORMAL":71,
						"TEXCOORD_0":72
					},
					"indices":73,
					"material":2
				},
				{
					"attributes":{
						"POSITION":74,
						"NORMAL":75,
						"TEXCOORD_0":76
					},
					"indices":77,
					"material":5
				},
				{
					"attributes":{
						"POSITION":78,
						"NORMAL":79,
						"TEXCOORD_0":80
					},
					"indices":81,
					"material":3
				}
			]
		},
		{
			"name":"computer.002",
			"primitives":[
				{
					"attributes":{
						"POSITION":82,
						"NORMAL":83,
						"TEXCOORD_0":84
					},
					"indices":85,
					"material":0
				},
				{
					"attributes":{
						"POSITION":86,
						"NORMAL":87,
						"TEXCOORD_0":88
					},
					"indices":89,
					"material":8
				}
			]
		},
		{
			"name":"computer.001",
			"primitives":[
				{
					"attributes":{
						"POSITION":90,
						"NORMAL":91,
						"TEXCOORD_0":92
					},
					"indices":93,
					"material":0
				},
				{
					"attributes":{
						"POSITION":94,
						"NORMAL":95,
						"TEXCOORD_0":96
					},
					"indices":97,
					"material":4
				},
				{
					"attributes":{
						"POSITION":98,
						"NORMAL":99,
						"TEXCOORD_0":100
					},
					"indices":101,
					"material":8
				},
				{
					"attributes":{
						"POSITION":102,
						"NORMAL":103,
						"TEXCOORD_0":104
					},
					"indices":105,
					"material":9
				},
				{
					"attributes":{
						"POSITION":106,
						"NORMAL":107,
						"TEXCOORD_0":108
					},
					"indices":109,
					"material":10
				},
				{
					"attributes":{
						"POSITION":110,
						"NORMAL":111,
						"TEXCOORD_0":112
					},
					"indices":113,
					"material":11
				}
			]
		},
		{
			"name":"computer.012",
			"primitives":[
				{
					"attributes":{
						"POSITION":114,
						"NORMAL":115,
						"TEXCOORD_0":116
					},
					"indices":117,
					"material":0
				},
				{
					"attributes":{
						"POSITION":118,
						"NORMAL":119,
						"TEXCOORD_0":120
					},
					"indices":121,
					"material":4
				},
				{
					"attributes":{
						"POSITION":122,
						"NORMAL":123,
						"TEXCOORD_0":124
					},
					"indices":125,
					"material":8
				},
				{
					"attributes":{
						"POSITION":126,
						"NORMAL":127,
						"TEXCOORD_0":128
					},
					"indices":129,
					"material":9
				},
				{
					"attributes":{
						"POSITION":130,
						"NORMAL":131,
						"TEXCOORD_0":132
					},
					"indices":133,
					"material":10
				}
			]
		},
		{
			"name":"computer.007",
			"primitives":[
				{
					"attributes":{
						"POSITION":134,
						"NORMAL":135,
						"TEXCOORD_0":136
					},
					"indices":137,
					"material":0
				},
				{
					"attributes":{
						"POSITION":138,
						"NORMAL":139,
						"TEXCOORD_0":140
					},
					"indices":141,
					"material":8
				},
				{
					"attributes":{
						"POSITION":142,
						"NORMAL":143,
						"TEXCOORD_0":144
					},
					"indices":145,
					"material":9
				}
			]
		},
		{
			"name":"computer.003",
			"primitives":[
				{
					"attributes":{
						"POSITION":146,
						"NORMAL":147,
						"TEXCOORD_0":148
					},
					"indices":149,
					"material":0
				},
				{
					"attributes":{
						"POSITION":150,
						"NORMAL":151,
						"TEXCOORD_0":152
					},
					"indices":153,
					"material":8
				}
			]
		}
	],
	"textures":[
		{
			"sampler":0,
			"source":0
		}
	],
	"images":[
		{
			"mimeType":"image/png",
			"name":"computer",
			"uri":"textures/computer.png"
		}
	],
	"accessors":[
		{
			"bufferView":0,
			"componentType":5126,
			"count":19,
			"max":[
				0.37383222579956055,
				-0.44999995827674866,
				0.30373823642730713
			],
			"min":[
				0.3551406264305115,
				-0.450052410364151,
				-0.4813084304332733
			],
			"type":"VEC3"
		},
		{
			"bufferView":1,
			"componentType":5126,
			"count":19,
			"type":"VEC3"
		},
		{
			"bufferView":2,
			"componentType":5126,
			"count":19,
			"type":"VEC2"
		},
		{
			"bufferView":3,
			"componentType":5123,
			"count":48,
			"type":"SCALAR"
		},
		{
			"bufferView":4,
			"componentType":5126,
			"count":625,
			"max":[
				0.37383222579956055,
				-0.44999995827674866,
				0.30373823642730713
			],
			"min":[
				-0.5046804547309875,
				-0.7000524997711182,
				-0.4813085198402405
			],
			"type":"VEC3"
		},
		{
			"bufferView":5,
			"componentType":5126,
			"count":625,
			"type":"VEC3"
		},
		{
			"bufferView":6,
			"componentType":5126,
			"count":625,
			"type":"VEC2"
		},
		{
			"bufferView":7,
			"componentType":5123,
			"count":2031,
			"type":"SCALAR"
		},
		{
			"bufferView":8,
			"componentType":5126,
			"count":182,
			"max":[
				0.3644864559173584,
				-0.44999998807907104,
				0.30373823642730713
			],
			"min":[
				-0.45795148611068726,
				-0.7000524997711182,
				0.29439231753349304
			],
			"type":"VEC3"
		},
		{
			"bufferView":9,
			"componentType":5126,
			"count":182,
			"type":"VEC3"
		},
		{
			"bufferView":10,
			"componentType":5126,
			"count":182,
			"type":"VEC2"
		},
		{
			"bufferView":11,
			"componentType":5123,
			"count":534,
			"type":"SCALAR"
		},
		{
			"bufferView":12,
			"componentType":5126,
			"count":631,
			"max":[
				0.37383222579956055,
				-0.44999998807907104,
				0.30373823642730713
			],
			"min":[
				-0.5046728849411011,
				-0.450052410364151,
				-0.4813084304332733
			],
			"type":"VEC3"
		},
		{
			"bufferView":13,
			"componentType":5126,
			"count":631,
			"type":"VEC3"
		},
		{
			"bufferView":14,
			"componentType":5126,
			"count":631,
			"type":"VEC2"
		},
		{
			"bufferView":15,
			"componentType":5123,
			"count":2913,
			"type":"SCALAR"
		},
		{
			"bufferView":16,
			"componentType":5126,
			"count":364,
			"max":[
				0.364486426115036,
				-0.44999998807907104,
				0.25700920820236206
			],
			"min":[
				-0.5046804547309875,
				-0.7000000476837158,
				-0.4813085198402405
			],
			"type":"VEC3"
		},
		{
			"bufferView":17,
			"componentType":5126,
			"count":364,
			"type":"VEC3"
		},
		{
			"bufferView":18,
			"componentType":5126,
			"count":364,
			"type":"VEC2"
		},
		{
			"bufferView":19,
			"componentType":5123,
			"count":1032,
			"type":"SCALAR"
		},
		{
			"bufferView":20,
			"componentType":5126,
			"count":4362,
			"max":[
				0.4672902524471283,
				0.059999994933605194,
				0.30373820662498474
			],
			"min":[
				-0.5046728849411011,
				-0.4500000476837158,
				-0.4813084304332733
			],
			"type":"VEC3"
		},
		{
			"bufferView":21,
			"componentType":5126,
			"count":4362,
			"type":"VEC3"
		},
		{
			"bufferView":22,
			"componentType":5126,
			"count":4362,
			"type":"VEC2"
		},
		{
			"bufferView":23,
			"componentType":5121,
			"count":4362,
			"normalized":true,
			"type":"VEC4"
		},
		{
			"bufferView":24,
			"componentType":5123,
			"count":4362,
			"normalized":true,
			"type":"VEC4"
		},
		{
			"bufferView":25,
			"componentType":5123,
			"count":18684,
			"type":"SCALAR"
		},
		{
			"bufferView":26,
			"componentType":5126,
			"count":635,
			"max":[
				0.3925238251686096,
				0.04999999701976776,
				0.16355125606060028
			],
			"min":[
				-0.4299065172672272,
				-0.44999998807907104,
				-0.4813084304332733
			],
			"type":"VEC3"
		},
		{
			"bufferView":27,
			"componentType":5126,
			"count":635,
			"type":"VEC3"
		},
		{
			"bufferView":28,
			"componentType":5126,
			"count":635,
			"type":"VEC2"
		},
		{
			"bufferView":29,
			"componentType":5121,
			"count":635,
			"normalized":true,
			"type":"VEC4"
		},
		{
			"bufferView":30,
			"componentType":5123,
			"count":635,
			"normalized":true,
			"type":"VEC4"
		},
		{
			"bufferView":31,
			"componentType":5123,
			"count":1737,
			"type":"SCALAR"
		},
		{
			"bufferView":32,
			"componentType":5126,
			"count":363,
			"max":[
				0.45794445276260376,
				0.059999994933605194,
				0.30373820662498474
			],
			"min":[
				-0.4579439163208008,
				-0.44999998807907104,
				-0.4813084304332733
			],
			"type":"VEC3"
		},
		{
			"bufferView":33,
			"componentType":5126,
			"count":363,
			"type":"VEC3"
		},
		{
			"bufferView":34,
			"componentType":5126,
			"count":363,
			"type":"VEC2"
		},
		{
			"bufferView":35,
			"componentType":5121,
			"count":363,
			"normalized":true,
			"type":"VEC4"
		},
		{
			"bufferView":36,
			"componentType":5123,
			"count":363,
			"normalized":true,
			"type":"VEC4"
		},
		{
			"bufferView":37,
			"componentType":5123,
			"count":1020,
			"type":"SCALAR"
		},
		{
			"bufferView":38,
			"componentType":5126,
			"count":296,
			"max":[
				0.4672902524471283,
				0.059999994933605194,
				0.30373820662498474
			],
			"min":[
				-0.39252331852912903,
				-0.45000001788139343,
				-0.4719626307487488
			],
			"type":"VEC3"
		},
		{
			"bufferView":39,
			"componentType":5126,
			"count":296,
			"type":"VEC3"
		},
		{
			"bufferView":40,
			"componentType":5126,
			"count":296,
			"type":"VEC2"
		},
		{
			"bufferView":41,
			"componentType":5121,
			"count":296,
			"normalized":true,
			"type":"VEC4"
		},
		{
			"bufferView":42,
			"componentType":5123,
			"count":296,
			"normalized":true,
			"type":"VEC4"
		},
		{
			"bufferView":43,
			"componentType":5123,
			"count":705,
			"type":"SCALAR"
		},
		{
			"bufferView":44,
			"componentType":5126,
			"count":136,
			"max":[
				0.45794445276260376,
				0.04999999701976776,
				0.2663550078868866
			],
			"min":[
				-0.3644859492778778,
				-0.44999998807907104,
				-0.4813084304332733
			],
			"type":"VEC3"
		},
		{
			"bufferView":45,
			"componentType":5126,
			"count":136,
			"type":"VEC3"
		},
		{
			"bufferView":46,
			"componentType":5126,
			"count":136,
			"type":"VEC2"
		},
		{
			"bufferView":47,
			"componentType":5121,
			"count":136,
			"normalized":true,
			"type":"VEC4"
		},
		{
			"bufferView":48,
			"componentType":5123,
			"count":136,
			"normalized":true,
			"type":"VEC4"
		},
		{
			"bufferView":49,
			"componentType":5123,
			"count":348,
			"type":"SCALAR"
		},
		{
			"bufferView":50,
			"componentType":5126,
			"count":4,
			"max":[
				0.4392528235912323,
				-0.44999998807907104,
				0.28504660725593567
			],
			"min":[
				0.42990702390670776,
				-0.4500000476837158,
				0.27570080757141113
			],
			"type":"VEC3"
		},
		{
			"bufferView":51,
			"componentType":5126,
			"count":4,
			"type":"VEC3"
		},
		{
			"bufferView":52,
			"componentType":5126,
			"count":4,
			"type":"VEC2"
		},
		{
			"bufferView":53,
			"componentType":5121,
			"count":4,
			"normalized":true,
			"type":"VEC4"
		},
		{
			"bufferView":54,
			"componentType":5123,
			"count":4,
			"normalized":true,
			"type":"VEC4"
		},
		{
			"bufferView":55,
			"componentType":5123,
			"count":6,
			"type":"SCALAR"
		},
		{
			"bufferView":56,
			"componentType":5126,
			"count":411,
			"max":[
				0.364486426115036,
				0.04999999701976776,
				0.28504660725593567
			],
			"min":[
				-0.5046728849411011,
				-0.44999998807907104,
				-0.4813084304332733
			],
			"type":"VEC3"
		},
		{
			"bufferView":57,
			"componentType":5126,
			"count":411,
			"type":"VEC3"
		},
		{
			"bufferView":58,
			"componentType":5126,
			"count":411,
			"type":"VEC2"
		},
		{
			"bufferView":59,
			"componentType":5121,
			"count":411,
			"normalized":true,
			"type":"VEC4"
		},
		{
			"bufferView":60,
			"componentType":5123,
			"count":411,
			"normalized":true,
			"type":"VEC4"
		},
		{
			"bufferView":61,
			"componentType":5123,
			"count":1158,
			"type":"SCALAR"
		},
		{
			"bufferView":62,
			"componentType":5126,
			"count":1169,
			"max":[
				0.4672902524471283,
				0.04999999701976776,
				0.30373820662498474
			],
			"min":[
				0.364486426115036,
				-0.20000001788139343,
				-0.4813084304332733
			],
			"type":"VEC3"
		},
		{
			"bufferView":63,
			"componentType":5126,
			"count":1169,
			"type":"VEC3"
		},
		{
			"bufferView":64,
			"componentType":5126,
			"count":1169,
			"type":"VEC2"
		},
		{
			"bufferView":65,
			"componentType":5123,
			"count":5334,
			"type":"SCALAR"
		},
		{
			"bufferView":66,
			"componentType":5126,
			"count":81,
			"max":[
				0.3925238251686096,
				0.04999999701976776,
				0.14485964179039001
			],
			"min":[
				0.364486426115036,
				-0.20000003278255463,
				-0.4813084304332733
			],
			"type":"VEC3"
		},
		{
			"bufferView":67,
			"componentType":5126,
			"count":81,
			"type":"VEC3"
		},
		{
			"bufferView":68,
			"componentType":5126,
			"count":81,
			"type":"VEC2"
		},
		{
			"bufferView":69,
			"componentType":5123,
			"count":207,
			"type":"SCALAR"
		},
		{
			"bufferView":70,
			"componentType":5126,
			"count":24,
			"max":[
				0.45794445276260376,
				0.03999999910593033,
				0.30373820662498474
			],
			"min":[
				0.364486426115036,
				-0.20000001788139343,
				-0.4813084304332733
			],
			"type":"VEC3"
		},
		{
			"bufferView":71,
			"componentType":5126,
			"count":24,
			"type":"VEC3"
		},
		{
			"bufferView":72,
			"componentType":5126,
			"count":24,
			"type":"VEC2"
		},
		{
			"bufferView":73,
			"componentType":5123,
			"count":36,
			"type":"SCALAR"
		},
		{
			"bufferView":74,
			"componentType":5126,
			"count":166,
			"max":[
				0.4672902524471283,
				0.04999999701976776,
				0.30373820662498474
			],
			"min":[
				0.364486426115036,
				-0.20000001788139343,
				-0.4719626307487488
			],
			"type":"VEC3"
		},
		{
			"bufferView":75,
			"componentType":5126,
			"count":166,
			"type":"VEC3"
		},
		{
			"bufferView":76,
			"componentType":5126,
			"count":166,
			"type":"VEC2"
		},
		{
			"bufferView":77,
			"componentType":5123,
			"count":366,
			"type":"SCALAR"
		},
		{
			"bufferView":78,
			"componentType":5126,
			"count":50,
			"max":[
				0.45794445276260376,
				0.04999999701976776,
				0.2943924069404602
			],
			"min":[
				0.3925238251686096,
				-0.20000001788139343,
				-0.4813084304332733
			],
			"type":"VEC3"
		},
		{
			"bufferView":79,
			"componentType":5126,
			"count":50,
			"type":"VEC3"
		},
		{
			"bufferView":80,
			"componentType":5126,
			"count":50,
			"type":"VEC2"
		},
		{
			"bufferView":81,
			"componentType":5123,
			"count":93,
			"type":"SCALAR"
		},
		{
			"bufferView":82,
			"componentType":5126,
			"count":1868,
			"max":[
				0.6355141997337341,
				3.019806626980426e-14,
				0.2663550078868866
			],
			"min":[
				-0.1689004898071289,
				-0.40000006556510925,
				-0.30373841524124146
			],
			"type":"VEC3"
		},
		{
			"bufferView":83,
			"componentType":5126,
			"count":1868,
			"type":"VEC3"
		},
		{
			"bufferView":84,
			"componentType":5126,
			"count":1868,
			"type":"VEC2"
		},
		{
			"bufferView":85,
			"componentType":5123,
			"count":9840,
			"type":"SCALAR"
		},
		{
			"bufferView":86,
			"componentType":5126,
			"count":230,
			"max":[
				0.6355141997337341,
				3.019806626980426e-14,
				0.2663550078868866
			],
			"min":[
				-0.1689004898071289,
				-0.40000006556510925,
				-0.30373841524124146
			],
			"type":"VEC3"
		},
		{
			"bufferView":87,
			"componentType":5126,
			"count":230,
			"type":"VEC3"
		},
		{
			"bufferView":88,
			"componentType":5126,
			"count":230,
			"type":"VEC2"
		},
		{
			"bufferView":89,
			"componentType":5123,
			"count":540,
			"type":"SCALAR"
		},
		{
			"bufferView":90,
			"componentType":5126,
			"count":3841,
			"max":[
				0.5140193104743958,
				0.24000006914138794,
				0.30373823642730713
			],
			"min":[
				0.4205612540245056,
				-0.1499999761581421,
				-0.4813084006309509
			],
			"type":"VEC3"
		},
		{
			"bufferView":91,
			"componentType":5126,
			"count":3841,
			"type":"VEC3"
		},
		{
			"bufferView":92,
			"componentType":5126,
			"count":3841,
			"type":"VEC2"
		},
		{
			"bufferView":93,
			"componentType":5123,
			"count":10944,
			"type":"SCALAR"
		},
		{
			"bufferView":94,
			"componentType":5126,
			"count":739,
			"max":[
				0.5140193104743958,
				0.24000006914138794,
				0.27570098638534546
			],
			"min":[
				0.45794445276260376,
				-0.1499999761581421,
				-0.44392526149749756
			],
			"type":"VEC3"
		},
		{
			"bufferView":95,
			"componentType":5126,
			"count":739,
			"type":"VEC3"
		},
		{
			"bufferView":96,
			"componentType":5126,
			"count":739,
			"type":"VEC2"
		},
		{
			"bufferView":97,
			"componentType":5123,
			"count":2409,
			"type":"SCALAR"
		},
		{
			"bufferView":98,
			"componentType":5126,
			"count":119,
			"max":[
				0.514019250869751,
				0.23000003397464752,
				0.30373823642730713
			],
			"min":[
				0.4205612540245056,
				-0.1499999761581421,
				-0.4813084006309509
			],
			"type":"VEC3"
		},
		{
			"bufferView":99,
			"componentType":5126,
			"count":119,
			"type":"VEC3"
		},
		{
			"bufferView":100,
			"componentType":5126,
			"count":119,
			"type":"VEC2"
		},
		{
			"bufferView":101,
			"componentType":5123,
			"count":222,
			"type":"SCALAR"
		},
		{
			"bufferView":102,
			"componentType":5126,
			"count":16,
			"max":[
				0.5046734809875488,
				0.1900000274181366,
				0.2663551867008209
			],
			"min":[
				0.4672902524471283,
				-0.1499999463558197,
				0.20093464851379395
			],
			"type":"VEC3"
		},
		{
			"bufferView":103,
			"componentType":5126,
			"count":16,
			"type":"VEC3"
		},
		{
			"bufferView":104,
			"componentType":5126,
			"count":16,
			"type":"VEC2"
		},
		{
			"bufferView":105,
			"componentType":5123,
			"count":24,
			"type":"SCALAR"
		},
		{
			"bufferView":106,
			"componentType":5126,
			"count":220,
			"max":[
				0.514019250869751,
				0.23000003397464752,
				0.28504678606987
			],
			"min":[
				0.44859862327575684,
				-0.1499999761581421,
				-0.46261686086654663
			],
			"type":"VEC3"
		},
		{
			"bufferView":107,
			"componentType":5126,
			"count":220,
			"type":"VEC3"
		},
		{
			"bufferView":108,
			"componentType":5126,
			"count":220,
			"type":"VEC2"
		},
		{
			"bufferView":109,
			"componentType":5123,
			"count":438,
			"type":"SCALAR"
		},
		{
			"bufferView":110,
			"componentType":5126,
			"count":4,
			"max":[
				0.514019250869751,
				0.01000000536441803,
				0.15420566499233246
			],
			"min":[
				0.5046734809875488,
				0.009999997913837433,
				0.14485986530780792
			],
			"type":"VEC3"
		},
		{
			"bufferView":111,
			"componentType":5126,
			"count":4,
			"type":"VEC3"
		},
		{
			"bufferView":112,
			"componentType":5126,
			"count":4,
			"type":"VEC2"
		},
		{
			"bufferView":113,
			"componentType":5123,
			"count":6,
			"type":"SCALAR"
		},
		{
			"bufferView":114,
			"componentType":5126,
			"count":2467,
			"max":[
				0.5140193104743958,
				0.24000003933906555,
				0.30373823642730713
			],
			"min":[
				0.4205612540245056,
				-0.1499999761581421,
				-0.4813084006309509
			],
			"type":"VEC3"
		},
		{
			"bufferView":115,
			"componentType":5126,
			"count":2467,
			"type":"VEC3"
		},
		{
			"bufferView":116,
			"componentType":5126,
			"count":2467,
			"type":"VEC2"
		},
		{
			"bufferView":117,
			"componentType":5123,
			"count":6534,
			"type":"SCALAR"
		},
		{
			"bufferView":118,
			"componentType":5126,
			"count":1003,
			"max":[
				0.5140193104743958,
				0.24000006914138794,
				0.2757008373737335
			],
			"min":[
				0.45794445276260376,
				-0.1499999761581421,
				-0.434579461812973
			],
			"type":"VEC3"
		},
		{
			"bufferView":119,
			"componentType":5126,
			"count":1003,
			"type":"VEC3"
		},
		{
			"bufferView":120,
			"componentType":5126,
			"count":1003,
			"type":"VEC2"
		},
		{
			"bufferView":121,
			"componentType":5123,
			"count":2985,
			"type":"SCALAR"
		},
		{
			"bufferView":122,
			"componentType":5126,
			"count":144,
			"max":[
				0.5046734809875488,
				0.23000003397464752,
				0.30373823642730713
			],
			"min":[
				0.4205612540245056,
				-0.1499999761581421,
				-0.4813084006309509
			],
			"type":"VEC3"
		},
		{
			"bufferView":123,
			"componentType":5126,
			"count":144,
			"type":"VEC3"
		},
		{
			"bufferView":124,
			"componentType":5126,
			"count":144,
			"type":"VEC2"
		},
		{
			"bufferView":125,
			"componentType":5123,
			"count":270,
			"type":"SCALAR"
		},
		{
			"bufferView":126,
			"componentType":5126,
			"count":744,
			"max":[
				0.5140193104743958,
				0.2300000637769699,
				0.2570093870162964
			],
			"min":[
				0.45794445276260376,
				-0.1499999761581421,
				-0.4158879220485687
			],
			"type":"VEC3"
		},
		{
			"bufferView":127,
			"componentType":5126,
			"count":744,
			"type":"VEC3"
		},
		{
			"bufferView":128,
			"componentType":5126,
			"count":744,
			"type":"VEC2"
		},
		{
			"bufferView":129,
			"componentType":5123,
			"count":2016,
			"type":"SCALAR"
		},
		{
			"bufferView":130,
			"componentType":5126,
			"count":878,
			"max":[
				0.514019250869751,
				0.24000006914138794,
				0.28504663705825806
			],
			"min":[
				0.44859862327575684,
				-0.1499999761581421,
				-0.46261686086654663
			],
			"type":"VEC3"
		},
		{
			"bufferView":131,
			"componentType":5126,
			"count":878,
			"type":"VEC3"
		},
		{
			"bufferView":132,
			"componentType":5126,
			"count":878,
			"type":"VEC2"
		},
		{
			"bufferView":133,
			"componentType":5123,
			"count":2238,
			"type":"SCALAR"
		},
		{
			"bufferView":134,
			"componentType":5126,
			"count":922,
			"max":[
				0.3642527759075165,
				0,
				0.1539718061685562
			],
			"min":[
				-0.4203270673751831,
				-0.015000000596046448,
				-0.3969627022743225
			],
			"type":"VEC3"
		},
		{
			"bufferView":135,
			"componentType":5126,
			"count":922,
			"type":"VEC3"
		},
		{
			"bufferView":136,
			"componentType":5126,
			"count":922,
			"type":"VEC2"
		},
		{
			"bufferView":137,
			"componentType":5123,
			"count":2520,
			"type":"SCALAR"
		},
		{
			"bufferView":138,
			"componentType":5126,
			"count":602,
			"max":[
				0.364486426115036,
				-0.008999999612569809,
				0.15420544147491455
			],
			"min":[
				-0.42056071758270264,
				-0.44999998807907104,
				-0.39719635248184204
			],
			"type":"VEC3"
		},
		{
			"bufferView":139,
			"componentType":5126,
			"count":602,
			"type":"VEC3"
		},
		{
			"bufferView":140,
			"componentType":5126,
			"count":602,
			"type":"VEC2"
		},
		{
			"bufferView":141,
			"componentType":5123,
			"count":1710,
			"type":"SCALAR"
		},
		{
			"bufferView":142,
			"componentType":5126,
			"count":314,
			"max":[
				0.32710322737693787,
				-0.008999999612569809,
				0.1448596715927124
			],
			"min":[
				-0.42056071758270264,
				-0.44999998807907104,
				-0.39719635248184204
			],
			"type":"VEC3"
		},
		{
			"bufferView":143,
			"componentType":5126,
			"count":314,
			"type":"VEC3"
		},
		{
			"bufferView":144,
			"componentType":5126,
			"count":314,
			"type":"VEC2"
		},
		{
			"bufferView":145,
			"componentType":5123,
			"count":858,
			"type":"SCALAR"
		},
		{
			"bufferView":146,
			"componentType":5126,
			"count":4148,
			"max":[
				0.691588819026947,
				0,
				0.4813084006309509
			],
			"min":[
				-0.6915887594223022,
				-0.10000001639127731,
				0.2943924069404602
			],
			"type":"VEC3"
		},
		{
			"bufferView":147,
			"componentType":5126,
			"count":4148,
			"type":"VEC3"
		},
		{
			"bufferView":148,
			"componentType":5126,
			"count":4148,
			"type":"VEC2"
		},
		{
			"bufferView":149,
			"componentType":5123,
			"count":21456,
			"type":"SCALAR"
		},
		{
			"bufferView":150,
			"componentType":5126,
			"count":748,
			"max":[
				0.691588819026947,
				0,
				0.4813084006309509
			],
			"min":[
				-0.6915887594223022,
				-0.10000001639127731,
				0.2943924069404602
			],
			"type":"VEC3"
		},
		{
			"bufferView":151,
			"componentType":5126,
			"count":748,
			"type":"VEC3"
		},
		{
			"bufferView":152,
			"componentType":5126,
			"count":748,
			"type":"VEC2"
		},
		{
			"bufferView":153,
			"componentType":5123,
			"count":2004,
			"type":"SCALAR"
		}
	],
	"bufferViews":[
		{
			"buffer":0,
			"byteLength":228,
			"byteOffset":0,
			"target":34962
		},
		{
			"buffer":0,
			"byteLength":228,
			"byteOffset":228,
			"target":34962
		},
		{
			"buffer":0,
			"byteLength":152,
			"byteOffset":456,
			"target":34962
		},
		{
			"buffer":0,
			"byteLength":96,
			"byteOffset":608,
			"target":34963
		},
		{
			"buffer":0,
			"byteLength":7500,
			"byteOffset":704,
			"target":34962
		},
		{
			"buffer":0,
			"byteLength":7500,
			"byteOffset":8204,
			"target":34962
		},
		{
			"buffer":0,
			"byteLength":5000,
			"byteOffset":15704,
			"target":34962
		},
		{
			"buffer":0,
			"byteLength":4062,
			"byteOffset":20704,
			"target":34963
		},
		{
			"buffer":0,
			"byteLength":2184,
			"byteOffset":24768,
			"target":34962
		},
		{
			"buffer":0,
			"byteLength":2184,
			"byteOffset":26952,
			"target":34962
		},
		{
			"buffer":0,
			"byteLength":1456,
			"byteOffset":29136,
			"target":34962
		},
		{
			"buffer":0,
			"byteLength":1068,
			"byteOffset":30592,
			"target":34963
		},
		{
			"buffer":0,
			"byteLength":7572,
			"byteOffset":31660,
			"target":34962
		},
		{
			"buffer":0,
			"byteLength":7572,
			"byteOffset":39232,
			"target":34962
		},
		{
			"buffer":0,
			"byteLength":5048,
			"byteOffset":46804,
			"target":34962
		},
		{
			"buffer":0,
			"byteLength":5826,
			"byteOffset":51852,
			"target":34963
		},
		{
			"buffer":0,
			"byteLength":4368,
			"byteOffset":57680,
			"target":34962
		},
		{
			"buffer":0,
			"byteLength":4368,
			"byteOffset":62048,
			"target":34962
		},
		{
			"buffer":0,
			"byteLength":2912,
			"byteOffset":66416,
			"target":34962
		},
		{
			"buffer":0,
			"byteLength":2064,
			"byteOffset":69328,
			"target":34963
		},
		{
			"buffer":0,
			"byteLength":52344,
			"byteOffset":71392,
			"target":34962
		},
		{
			"buffer":0,
			"byteLength":52344,
			"byteOffset":123736,
			"target":34962
		},
		{
			"buffer":0,
			"byteLength":34896,
			"byteOffset":176080,
			"target":34962
		},
		{
			"buffer":0,
			"byteLength":17448,
			"byteOffset":210976,
			"target":34962
		},
		{
			"buffer":0,
			"byteLength":34896,
			"byteOffset":228424,
			"target":34962
		},
		{
			"buffer":0,
			"byteLength":37368,
			"byteOffset":263320,
			"target":34963
		},
		{
			"buffer":0,
			"byteLength":7620,
			"byteOffset":300688,
			"target":34962
		},
		{
			"buffer":0,
			"byteLength":7620,
			"byteOffset":308308,
			"target":34962
		},
		{
			"buffer":0,
			"byteLength":5080,
			"byteOffset":315928,
			"target":34962
		},
		{
			"buffer":0,
			"byteLength":2540,
			"byteOffset":321008,
			"target":34962
		},
		{
			"buffer":0,
			"byteLength":5080,
			"byteOffset":323548,
			"target":34962
		},
		{
			"buffer":0,
			"byteLength":3474,
			"byteOffset":328628,
			"target":34963
		},
		{
			"buffer":0,
			"byteLength":4356,
			"byteOffset":332104,
			"target":34962
		},
		{
			"buffer":0,
			"byteLength":4356,
			"byteOffset":336460,
			"target":34962
		},
		{
			"buffer":0,
			"byteLength":2904,
			"byteOffset":340816,
			"target":34962
		},
		{
			"buffer":0,
			"byteLength":1452,
			"byteOffset":343720,
			"target":34962
		},
		{
			"buffer":0,
			"byteLength":2904,
			"byteOffset":345172,
			"target":34962
		},
		{
			"buffer":0,
			"byteLength":2040,
			"byteOffset":348076,
			"target":34963
		},
		{
			"buffer":0,
			"byteLength":3552,
			"byteOffset":350116,
			"target":34962
		},
		{
			"buffer":0,
			"byteLength":3552,
			"byteOffset":353668,
			"target":34962
		},
		{
			"buffer":0,
			"byteLength":2368,
			"byteOffset":357220,
			"target":34962
		},
		{
			"buffer":0,
			"byteLength":1184,
			"byteOffset":359588,
			"target":34962
		},
		{
			"buffer":0,
			"byteLength":2368,
			"byteOffset":360772,
			"target":34962
		},
		{
			"buffer":0,
			"byteLength":1410,
			"byteOffset":363140,
			"target":34963
		},
		{
			"buffer":0,
			"byteLength":1632,
			"byteOffset":364552,
			"target":34962
		},
		{
			"buffer":0,
			"byteLength":1632,
			"byteOffset":366184,
			"target":34962
		},
		{
			"buffer":0,
			"byteLength":1088,
			"byteOffset":367816,
			"target":34962
		},
		{
			"buffer":0,
			"byteLength":544,
			"byteOffset":368904,
			"target":34962
		},
		{
			"buffer":0,
			"byteLength":1088,
			"byteOffset":369448,
			"target":34962
		},
		{
			"buffer":0,
			"byteLength":696,
			"byteOffset":370536,
			"target":34963
		},
		{
			"buffer":0,
			"byteLength":48,
			"byteOffset":371232,
			"target":34962
		},
		{
			"buffer":0,
			"byteLength":48,
			"byteOffset":371280,
			"target":34962
		},
		{
			"buffer":0,
			"byteLength":32,
			"byteOffset":371328,
			"target":34962
		},
		{
			"buffer":0,
			"byteLength":16,
			"byteOffset":371360,
			"target":34962
		},
		{
			"buffer":0,
			"byteLength":32,
			"byteOffset":371376,
			"target":34962
		},
		{
			"buffer":0,
			"byteLength":12,
			"byteOffset":371408,
			"target":34963
		},
		{
			"buffer":0,
			"byteLength":4932,
			"byteOffset":371420,
			"target":34962
		},
		{
			"buffer":0,
			"byteLength":4932,
			"byteOffset":376352,
			"target":34962
		},
		{
			"buffer":0,
			"byteLength":3288,
			"byteOffset":381284,
			"target":34962
		},
		{
			"buffer":0,
			"byteLength":1644,
			"byteOffset":384572,
			"target":34962
		},
		{
			"buffer":0,
			"byteLength":3288,
			"byteOffset":386216,
			"target":34962
		},
		{
			"buffer":0,
			"byteLength":2316,
			"byteOffset":389504,
			"target":34963
		},
		{
			"buffer":0,
			"byteLength":14028,
			"byteOffset":391820,
			"target":34962
		},
		{
			"buffer":0,
			"byteLength":14028,
			"byteOffset":405848,
			"target":34962
		},
		{
			"buffer":0,
			"byteLength":9352,
			"byteOffset":419876,
			"target":34962
		},
		{
			"buffer":0,
			"byteLength":10668,
			"byteOffset":429228,
			"target":34963
		},
		{
			"buffer":0,
			"byteLength":972,
			"byteOffset":439896,
			"target":34962
		},
		{
			"buffer":0,
			"byteLength":972,
			"byteOffset":440868,
			"target":34962
		},
		{
			"buffer":0,
			"byteLength":648,
			"byteOffset":441840,
			"target":34962
		},
		{
			"buffer":0,
			"byteLength":414,
			"byteOffset":442488,
			"target":34963
		},
		{
			"buffer":0,
			"byteLength":288,
			"byteOffset":442904,
			"target":34962
		},
		{
			"buffer":0,
			"byteLength":288,
			"byteOffset":443192,
			"target":34962
		},
		{
			"buffer":0,
			"byteLength":192,
			"byteOffset":443480,
			"target":34962
		},
		{
			"buffer":0,
			"byteLength":72,
			"byteOffset":443672,
			"target":34963
		},
		{
			"buffer":0,
			"byteLength":1992,
			"byteOffset":443744,
			"target":34962
		},
		{
			"buffer":0,
			"byteLength":1992,
			"byteOffset":445736,
			"target":34962
		},
		{
			"buffer":0,
			"byteLength":1328,
			"byteOffset":447728,
			"target":34962
		},
		{
			"buffer":0,
			"byteLength":732,
			"byteOffset":449056,
			"target":34963
		},
		{
			"buffer":0,
			"byteLength":600,
			"byteOffset":449788,
			"target":34962
		},
		{
			"buffer":0,
			"byteLength":600,
			"byteOffset":450388,
			"target":34962
		},
		{
			"buffer":0,
			"byteLength":400,
			"byteOffset":450988,
			"target":34962
		},
		{
			"buffer":0,
			"byteLength":186,
			"byteOffset":451388,
			"target":34963
		},
		{
			"buffer":0,
			"byteLength":22416,
			"byteOffset":451576,
			"target":34962
		},
		{
			"buffer":0,
			"byteLength":22416,
			"byteOffset":473992,
			"target":34962
		},
		{
			"buffer":0,
			"byteLength":14944,
			"byteOffset":496408,
			"target":34962
		},
		{
			"buffer":0,
			"byteLength":19680,
			"byteOffset":511352,
			"target":34963
		},
		{
			"buffer":0,
			"byteLength":2760,
			"byteOffset":531032,
			"target":34962
		},
		{
			"buffer":0,
			"byteLength":2760,
			"byteOffset":533792,
			"target":34962
		},
		{
			"buffer":0,
			"byteLength":1840,
			"byteOffset":536552,
			"target":34962
		},
		{
			"buffer":0,
			"byteLength":1080,
			"byteOffset":538392,
			"target":34963
		},
		{
			"buffer":0,
			"byteLength":46092,
			"byteOffset":539472,
			"target":34962
		},
		{
			"buffer":0,
			"byteLength":46092,
			"byteOffset":585564,
			"target":34962
		},
		{
			"buffer":0,
			"byteLength":30728,
			"byteOffset":631656,
			"target":34962
		},
		{
			"buffer":0,
			"byteLength":21888,
			"byteOffset":662384,
			"target":34963
		},
		{
			"buffer":0,
			"byteLength":8868,
			"byteOffset":684272,
			"target":34962
		},
		{
			"buffer":0,
			"byteLength":8868,
			"byteOffset":693140,
			"target":34962
		},
		{
			"buffer":0,
			"byteLength":5912,
			"byteOffset":702008,
			"target":34962
		},
		{
			"buffer":0,
			"byteLength":4818,
			"byteOffset":707920,
			"target":34963
		},
		{
			"buffer":0,
			"byteLength":1428,
			"byteOffset":712740,
			"target":34962
		},
		{
			"buffer":0,
			"byteLength":1428,
			"byteOffset":714168,
			"target":34962
		},
		{
			"buffer":0,
			"byteLength":952,
			"byteOffset":715596,
			"target":34962
		},
		{
			"buffer":0,
			"byteLength":444,
			"byteOffset":716548,
			"target":34963
		},
		{
			"buffer":0,
			"byteLength":192,
			"byteOffset":716992,
			"target":34962
		},
		{
			"buffer":0,
			"byteLength":192,
			"byteOffset":717184,
			"target":34962
		},
		{
			"buffer":0,
			"byteLength":128,
			"byteOffset":717376,
			"target":34962
		},
		{
			"buffer":0,
			"byteLength":48,
			"byteOffset":717504,
			"target":34963
		},
		{
			"buffer":0,
			"byteLength":2640,
			"byteOffset":717552,
			"target":34962
		},
		{
			"buffer":0,
			"byteLength":2640,
			"byteOffset":720192,
			"target":34962
		},
		{
			"buffer":0,
			"byteLength":1760,
			"byteOffset":722832,
			"target":34962
		},
		{
			"buffer":0,
			"byteLength":876,
			"byteOffset":724592,
			"target":34963
		},
		{
			"buffer":0,
			"byteLength":48,
			"byteOffset":725468,
			"target":34962
		},
		{
			"buffer":0,
			"byteLength":48,
			"byteOffset":725516,
			"target":34962
		},
		{
			"buffer":0,
			"byteLength":32,
			"byteOffset":725564,
			"target":34962
		},
		{
			"buffer":0,
			"byteLength":12,
			"byteOffset":725596,
			"target":34963
		},
		{
			"buffer":0,
			"byteLength":29604,
			"byteOffset":725608,
			"target":34962
		},
		{
			"buffer":0,
			"byteLength":29604,
			"byteOffset":755212,
			"target":34962
		},
		{
			"buffer":0,
			"byteLength":19736,
			"byteOffset":784816,
			"target":34962
		},
		{
			"buffer":0,
			"byteLength":13068,
			"byteOffset":804552,
			"target":34963
		},
		{
			"buffer":0,
			"byteLength":12036,
			"byteOffset":817620,
			"target":34962
		},
		{
			"buffer":0,
			"byteLength":12036,
			"byteOffset":829656,
			"target":34962
		},
		{
			"buffer":0,
			"byteLength":8024,
			"byteOffset":841692,
			"target":34962
		},
		{
			"buffer":0,
			"byteLength":5970,
			"byteOffset":849716,
			"target":34963
		},
		{
			"buffer":0,
			"byteLength":1728,
			"byteOffset":855688,
			"target":34962
		},
		{
			"buffer":0,
			"byteLength":1728,
			"byteOffset":857416,
			"target":34962
		},
		{
			"buffer":0,
			"byteLength":1152,
			"byteOffset":859144,
			"target":34962
		},
		{
			"buffer":0,
			"byteLength":540,
			"byteOffset":860296,
			"target":34963
		},
		{
			"buffer":0,
			"byteLength":8928,
			"byteOffset":860836,
			"target":34962
		},
		{
			"buffer":0,
			"byteLength":8928,
			"byteOffset":869764,
			"target":34962
		},
		{
			"buffer":0,
			"byteLength":5952,
			"byteOffset":878692,
			"target":34962
		},
		{
			"buffer":0,
			"byteLength":4032,
			"byteOffset":884644,
			"target":34963
		},
		{
			"buffer":0,
			"byteLength":10536,
			"byteOffset":888676,
			"target":34962
		},
		{
			"buffer":0,
			"byteLength":10536,
			"byteOffset":899212,
			"target":34962
		},
		{
			"buffer":0,
			"byteLength":7024,
			"byteOffset":909748,
			"target":34962
		},
		{
			"buffer":0,
			"byteLength":4476,
			"byteOffset":916772,
			"target":34963
		},
		{
			"buffer":0,
			"byteLength":11064,
			"byteOffset":921248,
			"target":34962
		},
		{
			"buffer":0,
			"byteLength":11064,
			"byteOffset":932312,
			"target":34962
		},
		{
			"buffer":0,
			"byteLength":7376,
			"byteOffset":943376,
			"target":34962
		},
		{
			"buffer":0,
			"byteLength":5040,
			"byteOffset":950752,
			"target":34963
		},
		{
			"buffer":0,
			"byteLength":7224,
			"byteOffset":955792,
			"target":34962
		},
		{
			"buffer":0,
			"byteLength":7224,
			"byteOffset":963016,
			"target":34962
		},
		{
			"buffer":0,
			"byteLength":4816,
			"byteOffset":970240,
			"target":34962
		},
		{
			"buffer":0,
			"byteLength":3420,
			"byteOffset":975056,
			"target":34963
		},
		{
			"buffer":0,
			"byteLength":3768,
			"byteOffset":978476,
			"target":34962
		},
		{
			"buffer":0,
			"byteLength":3768,
			"byteOffset":982244,
			"target":34962
		},
		{
			"buffer":0,
			"byteLength":2512,
			"byteOffset":986012,
			"target":34962
		},
		{
			"buffer":0,
			"byteLength":1716,
			"byteOffset":988524,
			"target":34963
		},
		{
			"buffer":0,
			"byteLength":49776,
			"byteOffset":990240,
			"target":34962
		},
		{
			"buffer":0,
			"byteLength":49776,
			"byteOffset":1040016,
			"target":34962
		},
		{
			"buffer":0,
			"byteLength":33184,
			"byteOffset":1089792,
			"target":34962
		},
		{
			"buffer":0,
			"byteLength":42912,
			"byteOffset":1122976,
			"target":34963
		},
		{
			"buffer":0,
			"byteLength":8976,
			"byteOffset":1165888,
			"target":34962
		},
		{
			"buffer":0,
			"byteLength":8976,
			"byteOffset":1174864,
			"target":34962
		},
		{
			"buffer":0,
			"byteLength":5984,
			"byteOffset":1183840,
			"target":34962
		},
		{
			"buffer":0,
			"byteLength":4008,
			"byteOffset":1189824,
			"target":34963
		}
	],
	"samplers":[
		{
			"magFilter":9728,
			"minFilter":9984,
			"wrapS":33071,
			"wrapT":33071
		}
	],
	"buffers":[
		{
			"byteLength":1193832,
			"uri":"screen.bin"
		}
	]
}
